<svg xmlns="http://www.w3.org/2000/svg" width="621" height="253" viewBox="0 0 621 253" role="img" aria-label="dot">
<title>dot</title>
<defs>
<linearGradient id="g" x1="56" y1="0" x2="565" y2="0" gradientUnits="userSpaceOnUse"><stop offset="0" stop-color="#22d3ee"/><stop offset="0.55" stop-color="#818cf8"/><stop offset="1" stop-color="#c084fc"/></linearGradient>
<linearGradient id="bg" x1="0" y1="0" x2="0" y2="1"><stop offset="0" stop-color="#161b22"/><stop offset="1" stop-color="#0d1117"/></linearGradient>
</defs>
<rect x="1" y="1" width="619" height="251" rx="14" fill="url(#bg)" stroke="#30363d" stroke-width="2"/>
<path d="M1 44 H620" stroke="#30363d" stroke-width="2"/>
<circle cx="26" cy="23" r="7" fill="#ff5f57"/>
<circle cx="48" cy="23" r="7" fill="#febc2e"/>
<circle cx="70" cy="23" r="7" fill="#28c840"/>
<g fill="#3fb950"><rect x="56" y="124" width="13" height="13" rx="3"/><rect x="56" y="172" width="13" height="13" rx="3"/><rect x="72" y="108" width="13" height="13" rx="3"/><rect x="72" y="140" width="13" height="13" rx="3"/><rect x="72" y="172" width="13" height="13" rx="3"/><rect x="88" y="92" width="13" height="13" rx="3"/><rect x="88" y="108" width="13" height="13" rx="3"/><rect x="88" y="124" width="13" height="13" rx="3"/><rect x="88" y="140" width="13" height="13" rx="3"/><rect x="88" y="156" width="13" height="13" rx="3"/><rect x="88" y="172" width="13" height="13" rx="3"/><rect x="88" y="188" width="13" height="13" rx="3"/><rect x="104" y="108" width="13" height="13" rx="3"/><rect x="104" y="140" width="13" height="13" rx="3"/><rect x="104" y="172" width="13" height="13" rx="3"/><rect x="120" y="108" width="13" height="13" rx="3"/><rect x="120" y="156" width="13" height="13" rx="3"/></g>
<g fill="url(#g)"><rect x="216" y="140" width="13" height="13" rx="3"/><rect x="216" y="156" width="13" height="13" rx="3"/><rect x="216" y="172" width="13" height="13" rx="3"/><rect x="232" y="124" width="13" height="13" rx="3"/><rect x="232" y="188" width="13" height="13" rx="3"/><rect x="248" y="124" width="13" height="13" rx="3"/><rect x="248" y="188" width="13" height="13" rx="3"/><rect x="264" y="124" width="13" height="13" rx="3"/><rect x="264" y="188" width="13" height="13" rx="3"/><rect x="280" y="92" width="13" height="13" rx="3"/><rect x="280" y="108" width="13" height="13" rx="3"/><rect x="280" y="124" width="13" height="13" rx="3"/><rect x="280" y="140" width="13" height="13" rx="3"/><rect x="280" y="156" width="13" height="13" rx="3"/><rect x="280" y="172" width="13" height="13" rx="3"/><rect x="280" y="188" width="13" height="13" rx="3"/><rect x="312" y="140" width="13" height="13" rx="3"/><rect x="312" y="156" width="13" height="13" rx="3"/><rect x="312" y="172" width="13" height="13" rx="3"/><rect x="328" y="124" width="13" height="13" rx="3"/><rect x="328" y="188" width="13" height="13" rx="3"/><rect x="344" y="124" width="13" height="13" rx="3"/><rect x="344" y="188" width="13" height="13" rx="3"/><rect x="360" y="124" width="13" height="13" rx="3"/><rect x="360" y="188" width="13" height="13" rx="3"/><rect x="376" y="140" width="13" height="13" rx="3"/><rect x="376" y="156" width="13" height="13" rx="3"/><rect x="376" y="172" width="13" height="13" rx="3"/><rect x="408" y="124" width="13" height="13" rx="3"/><rect x="424" y="92" width="13" height="13" rx="3"/><rect x="424" y="108" width="13" height="13" rx="3"/><rect x="424" y="124" width="13" height="13" rx="3"/><rect x="424" y="140" width="13" height="13" rx="3"/><rect x="424" y="156" width="13" height="13" rx="3"/><rect x="424" y="172" width="13" height="13" rx="3"/><rect x="440" y="124" width="13" height="13" rx="3"/><rect x="440" y="188" width="13" height="13" rx="3"/><rect x="456" y="124" width="13" height="13" rx="3"/><rect x="456" y="188" width="13" height="13" rx="3"/><rect x="472" y="172" width="13" height="13" rx="3"/></g>
<g fill="#c084fc" opacity="0.9"><rect x="504" y="92" width="13" height="13" rx="3"/><rect x="504" y="108" width="13" height="13" rx="3"/><rect x="504" y="124" width="13" height="13" rx="3"/><rect x="504" y="140" width="13" height="13" rx="3"/><rect x="504" y="156" width="13" height="13" rx="3"/><rect x="504" y="172" width="13" height="13" rx="3"/><rect x="504" y="188" width="13" height="13" rx="3"/><rect x="520" y="92" width="13" height="13" rx="3"/><rect x="520" y="108" width="13" height="13" rx="3"/><rect x="520" y="124" width="13" height="13" rx="3"/><rect x="520" y="140" width="13" height="13" rx="3"/><rect x="520" y="156" width="13" height="13" rx="3"/><rect x="520" y="172" width="13" height="13" rx="3"/><rect x="520" y="188" width="13" height="13" rx="3"/><rect x="536" y="92" width="13" height="13" rx="3"/><rect x="536" y="108" width="13" height="13" rx="3"/><rect x="536" y="124" width="13" height="13" rx="3"/><rect x="536" y="140" width="13" height="13" rx="3"/><rect x="536" y="156" width="13" height="13" rx="3"/><rect x="536" y="172" width="13" height="13" rx="3"/><rect x="536" y="188" width="13" height="13" rx="3"/><rect x="552" y="92" width="13" height="13" rx="3"/><rect x="552" y="108" width="13" height="13" rx="3"/><rect x="552" y="124" width="13" height="13" rx="3"/><rect x="552" y="140" width="13" height="13" rx="3"/><rect x="552" y="156" width="13" height="13" rx="3"/><rect x="552" y="172" width="13" height="13" rx="3"/><rect x="552" y="188" width="13" height="13" rx="3"/><animate attributeName="opacity" values="0.9;0.9;0;0" keyTimes="0;0.5;0.5;1" dur="1.1s" repeatCount="indefinite"/></g>
</svg>
